# xmcd
#
# Track frame offsets: 
#        150
#        19905
#        31115
#        41440
#        52967
#        64845
#        73745
#        86282
#        97180
#        108732
#        118205
#        129835
#        143077
#        156177
#        168765
#        180185
#        191085
#        202670
#        217102
#        228755
#
# Disc length: 3177 seconds
#
# Revision: 5
# Processed by: cddbd v1.5.2PL0 Copyright (c) Steve Scherf et al.
# Submitted via: ExactAudioCopy v1.0b1
#
DISCID=0b0c6714
DTITLE=Various Artist - Only Country 1955-1959
DYEAR=1995
DGENRE=Country
TTITLE0=Marty Robbins - El Paso
TTITLE1=Stonewall Jackson - Waterloo
TTITLE2=Carl Perkins - Blue Suede Shoes
TTITLE3=Patsy Cline - Walkin' After Midnight
TTITLE4=Tennessee Ernie Ford - Sixteen Tons
TTITLE5=Faron Young - Alone With You
TTITLE6=George Jones - White Lightning
TTITLE7=Ferlin Husky - Gone
TTITLE8=Carl Smith - Loose Talk
TTITLE9=Webb Pierce - In The Jailhouse Now
TTITLE10=Ray Price - Crazy Arms
TTITLE11=Bobby Helms - Fraulein
TTITLE12=Kitty Wells - Making Believe
TTITLE13=Johnny Cash - I Walk The Line
TTITLE14=Sonny James - Young Love
TTITLE15=Jimmie Rodgers - Kisses Sweeter Than Wine
TTITLE16=Marvin Rainwater - Gonna Find Me A Bluebird
TTITLE17=Simon Crum - Country Music Is Here To Stay
TTITLE18=Red Sovine And Webb Pierce - Why Baby Why
TTITLE19=Louvin Brothers - I Don't Believe You've Met My Baby
EXTD=YEAR: 1995
EXTT0=Marty Robbins\n
EXTT1=Stonewall Jackson\n
EXTT2=Carl Perkins\n
EXTT3=Patsy Cline\n
EXTT4=Tennessee Ernie Ford\n
EXTT5=Faron Young\n
EXTT6=George Jones\n
EXTT7=Ferlin Husky\n
EXTT8=Carl Smith\n
EXTT9=Webb Pierce\n
EXTT10=Ray Price\n
EXTT11=Bobby Helms\n
EXTT12=Kitty Wells\n
EXTT13=Johnny Cash\n
EXTT14=Sonny James\n
EXTT15=Jimmie Rodgers\n
EXTT16=Marvin Rainwater\n
EXTT17=Simon Crum\n
EXTT18=Webb Pierce and Red Sovine\n
EXTT19=The Louvin Brothers\n
PLAYORDER=
